<svg width="90mm" height="20mm" viewBox="0 0 90 20" xml:space="preserve" xmlns="http://www.w3.org/2000/svg"><path style="fill:#fff;fill-opacity:1;stroke:none;stroke-width:.218292;stroke-linecap:square;stroke-linejoin:miter;stroke-miterlimit:4;stroke-dasharray:none;stroke-opacity:1;paint-order:markers fill stroke" transform="matrix(1.06156 0 0 1.0634 -56.052 -53.13)" d="M58.813 50.73h6.786a.5.5 45 0 1 .498.498v6.786a.5.5 135 0 1-.498.498h-6.786a.5.5 45 0 1-.498-.498v-6.786a.5.5 135 0 1 .498-.498"/><path d="M76.502 57.276c-.39.142-.83.308-1.332.504-.722.283-1.376.623-1.983 1.002h2.786a.529.53 0 0 0 .529-.53zm-7.732-6.77a.529.53 0 0 0-.53.53v6.994c1.267-1.062 2.679-2.108 4.515-2.894 1.546-.663 2.746-1.058 3.747-1.263v-2.837a.529.53 0 0 0-.529-.53zm-2.348 13.756a10.2 10.2 0 0 1-4.547 1.57c-1.224.122-2.484.015-3.714-.256v2.77a.529.53 0 0 0 .528.53h7.204a.529.53 0 0 0 .529-.53zm4.376-3.661c-.871.766-1.69 1.563-2.557 2.3v5.446a.529.53 0 0 0 .528.53h7.204a.529.53 0 0 0 .529-.53V61.13a.529.53 0 0 0-.529-.53z" style="fill:#fff;fill-opacity:1;stroke:none;stroke-width:.218292;stroke-linecap:square;stroke-opacity:1;paint-order:markers fill stroke" transform="translate(-52.308 -49.69)"/><path style="fill:#fff;fill-opacity:1;stroke:none;stroke-width:.264999;stroke-linecap:square;stroke-opacity:1;paint-order:markers fill stroke" d="M54.813 62.611s1.82 2.874 6.51 2.461c4.69-.412 9.911-5.823 12.927-7.705 3.016-1.883 6.67-2.347 6.67-2.347s-3.11-.767-7.061.598c-3.952 1.366-9.333 6.989-12.766 7.683-3.433.695-6.28-.69-6.28-.69" transform="translate(-52.308 -49.69)"/><path style="fill:#fff;fill-opacity:1;stroke:none;stroke-width:.264999;stroke-linecap:square;stroke-opacity:1;paint-order:markers fill stroke" d="M53.065 58.747s.45 2.746 4.072 3.933 8.142-2.116 8.142-2.116-3.28 1.357-6.74.69c-3.458-.667-5.474-2.507-5.474-2.507" transform="translate(-52.308 -49.69)"/><text xml:space="preserve" style="font-size:15.9335px;text-align:start;writing-mode:lr-tb;direction:ltr;text-anchor:start;fill:#fff;fill-opacity:1;stroke:none;stroke-width:.249353;stroke-linecap:square;stroke-opacity:1;paint-order:markers fill stroke" x="82.521" y="65.27" transform="matrix(.99723 0 0 1.00278 -52.308 -49.69)"><tspan style="font-style:normal;font-variant:normal;font-weight:250;font-stretch:normal;font-size:15.9335px;font-family:Aileron;-inkscape-font-specification:&quot;Aileron weight=250&quot;;stroke-width:.249354" x="82.521" y="65.27">Silk<tspan style="font-style:normal;font-variant:normal;font-weight:400;font-stretch:normal;font-size:15.9335px;font-family:Aileron;-inkscape-font-specification:Aileron;stroke-width:.249354">CMS</tspan></tspan></text></svg>